<?xml version="1.0" encoding="UTF-8"?>
<svg width="600px" height="460px" viewBox="0 0 600 460" version="1.1" xmlns="http://www.w3.org/2000/svg" xmlns:xlink="http://www.w3.org/1999/xlink">
    <!-- Generator: Sketch 39.1 (31720) - http://www.bohemiancoding.com/sketch -->
    <title>v</title>
    <desc>Created with Sketch.</desc>
    <defs>
        <rect id="path-1" x="18" y="84" width="245" height="199" rx="5"></rect>
        <mask id="mask-2" maskContentUnits="userSpaceOnUse" maskUnits="objectBoundingBox" x="0" y="0" width="245" height="199" fill="white">
            <use xlink:href="#path-1"></use>
        </mask>
        <path d="M29,224.498047 L27.2269925,162.001263 C27.101628,157.582288 30.5797506,154.109305 34.9988176,154.244239 L92.5,156 L162.016038,153.144418 L246.991762,153.926313 C251.41459,153.967009 254.925246,157.588171 254.833185,162.007097 L254,202 L254.868754,254.993976 C254.941239,259.415581 251.411571,262.949812 247.005283,262.888186 L112,261 L34.9965936,262.811845 C30.5801969,262.91576 27.1854638,259.42964 27.4150083,255.010685 L29,224.498047 Z" id="path-3"></path>
        <mask id="mask-4" maskContentUnits="userSpaceOnUse" maskUnits="objectBoundingBox" x="0" y="0" width="227.646143" height="109.744562" fill="white">
            <use xlink:href="#path-3"></use>
        </mask>
    </defs>
    <g id="Page-1" stroke="none" stroke-width="1" fill="none" fill-rule="evenodd">
        <g id="v">
            <use id="Rectangle" stroke="#979797" mask="url(#mask-2)" stroke-width="2" fill="#FFFFFF" xlink:href="#path-1"></use>
            <path d="" id="Path-2" stroke="#979797"></path>
            <path d="" id="Path-3" stroke="#979797"></path>
            <path d="" id="Path-4" stroke="#979797"></path>
            <path d="" id="Path-5" stroke="#979797"></path>
            <path d="M30.5641026,118.866159 C40.5860544,118.815707 50.6050496,118.685483 60.6299579,118.714801 C76.5004851,118.761215 92.3311524,119.179509 108.195813,119.093197 C129.51228,118.977224 150.591901,118.204412 171.912009,118.109368 C184.66427,118.052519 197.306285,118.554099 210.053035,118.639122 C223.802386,118.730833 237.573234,118.639122 251.333333,118.639122" id="Path-6" stroke="#979797"></path>
            <circle id="Oval" stroke="#979797" cx="37.5" cy="107.5" r="5.5"></circle>
            <circle id="Oval-Copy" stroke="#979797" cx="54.5" cy="107.5" r="5.5"></circle>
            <circle id="Oval-Copy-2" stroke="#979797" cx="71.5" cy="107.5" r="5.5"></circle>
            <path d="" id="Path-7" stroke="#979797"></path>
            <path d="M39.5,104.5 L35.5,111.25" id="Path-8" stroke="#979797"></path>
            <path d="M35,105.5 L41.5,110.5" id="Path-9" stroke="#979797"></path>
            <path d="M52,107 L57.5,106.75" id="Path-10" stroke="#979797"></path>
            <path d="M68.25,108 C70.9166667,107.666667 73.5833333,107.333333 76.25,107" id="Path-11" stroke="#979797"></path>
            <path d="" id="Path-12" stroke="#979797"></path>
            <path d="" id="Path-13" stroke="#979797"></path>
            <path d="M70.75,105 L72.25,111" id="Path-14" stroke="#979797"></path>
            <path d="M86.3132262,117.749023 C88.6331617,112.749349 93.2730327,102.75 93.2730327,102.75 C93.2730327,102.75 110.316186,101.003657 118.909155,100.75 C132.934876,100.335973 146.986812,100.75 161.025641,100.75" id="Path-15" stroke="#979797"></path>
            <path d="M88.3141026,127.643473 C89.0608706,131.794449 87.9924276,136.833689 90.5544067,139.206905 C92.9233519,141.401311 96.0305944,139.301979 98.8767864,139.206905 C118.287858,138.558503 137.717938,138.845243 157.125944,139.651653 C186.636425,140.877824 215.021434,142.34432 244.574392,137.65029" id="Path-17" stroke="#979797"></path>
            <path d="" id="Path-18" stroke="#979797"></path>
            <path d="" id="Path-19" stroke="#979797"></path>
            <path d="M88.3147276,126.531604 C127.626522,126.45748 166.938317,126.383355 206.250112,126.309231" id="Path-20" stroke="#979797"></path>
            <path d="M196.878084,126.498754 C206.761545,126.202256 216.642097,125.478617 226.528466,125.60926 C233.488377,125.701231 246.616741,123.161326 248.465932,126.498754 C249.962678,129.200089 249.721434,133.132382 248.465932,136.649608 C247.995973,137.966174 245.344266,137.613227 244.075477,137.761476" id="Path-21" stroke="#979797"></path>
            <path d="M35.25,131.25 C32.5307836,136.990568 31.2683896,135.733598 36.25,136.5" id="Path-22" stroke="#979797"></path>
            <polyline id="Path-23" stroke="#979797" points="34.5 134.25 35.75 134.5 36 134.5 36.2509766 134.5 38.2509766 134.25 38.5009766 134.25 39.5 134 39.75 134 40.25 134 40.25 134 40.5 134 40.75 134 40.75 134 41 134 41 134 41 134 41 134 41.25 134 41.25 134 41.25 134 41.25 134 41.25 134 41.25 134 41.25 134 41 134.25"></polyline>
            <path d="M46.75,133.25 C49.4166667,133.083333 52.0833333,132.916667 54.75,132.75" id="Path-24" stroke="#979797"></path>
            <path d="M52.75,130.5 C60.9744505,133.546093 61.5346563,131.72834 55.5,135.5" id="Path-25" stroke="#979797"></path>
            <path d="M72,136.25 C63.7193256,138.160925 65.7939511,127.112634 70.5,130.25" id="Path-26" stroke="#979797"></path>
            <path d="M69,127.5 C73.189706,131.689706 74.0505802,130.436153 69.75,132" id="Path-27" stroke="#979797"></path>
            <path d="M160.801282,100.5 C160.801282,100.5 168.189951,106.966177 172.692308,117" id="Path-28" stroke="#979797"></path>
            <path d="M165.961538,105.5 C169.798601,100.218397 168.297053,99.2268242 173.814103,99.5 C244.499998,103 221.499998,87.5 236.858974,116.75" id="Path-16" stroke="#979797"></path>
            <use id="Rectangle-2" stroke="#979797" mask="url(#mask-4)" stroke-width="2" xlink:href="#path-3"></use>
            <path d="M419,85.3607854 L488,59 L555,74.4027816 L557,250.573766 L511,291.034088 C511,291.034088 431,295.248705 425,263.217617 C419,231.186528 419,85.3607854 419,85.3607854 Z" id="Path-29" stroke="#979797"></path>
            <path d="M419,83.8730469 C419,83.8730469 487,118 503,106 C519,94 554.5,76 554.5,76" id="Path-30" stroke="#979797"></path>
            <path d="M503.5,108.96264 L510,290.612626" id="Path-31" stroke="#979797"></path>
            <path d="" id="Path-32" stroke="#979797"></path>
            <path d="M433.998047,129.191154 C435.499349,129.472678 440.003362,130.31684 438.501953,130.035724 L442.5,129.614262 C418.457189,125.112606 447.924961,134.96676 444.5,129.192801" id="Path-33" stroke="#979797"></path>
            <path d="M461.998047,130.034078 C485.396883,131.271305 459.866495,129.501728 462,131.300109 C464.006932,132.991799 467.661769,130.878647 470.5,130.878647 C472.839278,130.878647 461.845881,129.905813 463.5,131.300109 C465.517286,133.000527 469.166667,131.862058 472,132.143032" id="Path-34" stroke="#979797"></path>
            <path d="M449.498047,139.727696 L458,140.572266 L449,140.572266 C449,140.572266 455.21442,139.633421 458,140.572266 C460.03658,141.25867 453.686957,141.325604 451.496094,141.413543 C450.155276,141.467363 448.746261,141.414093 447.5,140.993728 C447.010103,140.828485 448.474289,140.572266 449.001953,140.572266 L457.001953,141.41519 C457.472898,141.41519 457.667318,140.853241 458,140.572266" id="Path-35" stroke="#979797"></path>
            <path d="" id="Path-36" stroke="#979797"></path>
            <path d="" id="Path-37" stroke="#979797"></path>
            <path d="M458.948223,195.544385 C446.538749,193.998505 447.345917,210.994644 459.450177,210.546338 C474.507449,209.988661 462.709482,197.472278 456.450177,195.546338" id="Path-38" stroke="#979797"></path>
            <path d="M440,228 C458.876199,236.389422 458.601173,239.044921 478.5,230" id="Path-39" stroke="#979797"></path>
            <path d="M437.5,236 C452.907381,244.666652 469.808019,249.981822 480.5,236" id="Path-40" stroke="#979797"></path>
            <path d="M437,245 C450.131187,256.255303 475.337386,259.367402 483,245" id="Path-41" stroke="#979797"></path>
            <path d="" id="Path-42" stroke="#979797"></path>
            <path d="M326,1 C320.500233,11.9995347 325,1.37544603 325,27 C325,56.6685393 322.342813,86.3777794 324,116 C325.019289,134.219798 331.151152,193.918901 330,225 C328.975936,252.649717 327.028689,280.40164 329,308 C329.721126,318.095763 333.302384,356.501376 330,410 C328.911343,427.636242 330.087264,445.353778 331,463 C331.092724,464.792659 331.563956,466.922967 333,468 C333.754247,468.565685 334.333333,466.666667 335,466" id="Path-43" stroke="#D6D6D6" stroke-dasharray="3"></path>
            <path d="" id="Path-46" stroke="#979797"></path>
            <path d="" id="Path-44" stroke="#979797"></path>
            <path d="" id="Path-45" stroke="#979797"></path>
            <path d="M264,217 C291.431316,219.286687 267.283565,208.78344 317.003906,215 C333,217 308.546239,217 365.003906,217 C369.575187,217 391.04007,213.719508 392,207 C395.039128,185.726104 381.586575,109.382744 400,81 C410.900127,64.1983722 438.732096,60.1100797 453,72 C453.923287,72.7694059 454.564394,73.8798698 455,75 C468.715163,110.267562 456.259126,87.4817483 458,84" id="Path-47" stroke="#979797"></path>
            <path d="" id="Path-48" stroke="#979797"></path>
            <path d="M459,92 C459.666667,91 461.291492,87.8340338 461,89 L463,90 C462.657003,91.3719887 460.632456,94.2649111 460,93 L458,93 C457.666667,92.3333333 458.254644,91 459,91 C461.666667,91 459.333333,95.3333333 458,94 C455.664911,91.664911 459.512717,89.5042389 461,90 C463.287783,90.7625945 456.808238,93.7876424 460,89 C460.1849,88.7226499 461.235702,88.7642977 461,89 L460,92 C457.333333,94.6666667 462,84.6666667 462,90 C462,94.619685 457.12868,90.9142135 460,89 C460.877058,88.4152947 462.254644,89.254644 463,90 C463.333333,90.3333333 462.114332,91.4573296 462,91 L460,92 C459.666667,90.6666667 460.666667,89.3333333 461,88" id="Path-49" stroke="#979797"></path>
            <path d="M529.392,141.972 C529.384,141.851999 529.424,141.75 529.512,141.666 C529.6,141.582 529.703999,141.536 529.824,141.528 L531.456,141.516 C531.424,141.219999 531.394,140.940001 531.366,140.676 C531.338,140.411999 531.304,140.176001 531.264,139.968 C531.248,139.847999 531.274,139.738 531.342,139.638 C531.41,139.538 531.503999,139.48 531.624,139.464 C531.744001,139.44 531.852,139.462 531.948,139.53 C532.044,139.598 532.104,139.691999 532.128,139.812 C532.168,140.036001 532.204,140.291999 532.236,140.58 C532.268,140.868001 532.3,141.175998 532.332,141.504 L534.54,141.48 C534.5,141.247999 534.464,141.018001 534.432,140.79 C534.4,140.561999 534.372,140.344001 534.348,140.136 C534.332,140.015999 534.364,139.91 534.444,139.818 C534.524,139.726 534.623999,139.672 534.744,139.656 C534.864001,139.64 534.97,139.67 535.062,139.746 C535.154,139.822 535.208,139.919999 535.224,140.04 C535.248,140.280001 535.278,140.519999 535.314,140.76 C535.35,141.000001 535.388,141.239999 535.428,141.48 L537.348,141.456 C537.468001,141.456 537.57,141.498 537.654,141.582 C537.738,141.666 537.78,141.767999 537.78,141.888 C537.788,142.008001 537.748,142.11 537.66,142.194 C537.572,142.278 537.468001,142.324 537.348,142.332 L535.62,142.344 C535.7,142.640001 535.782,142.925999 535.866,143.202 C535.95,143.478001 536.043999,143.739999 536.148,143.988 L537.348,143.268 C537.452001,143.204 537.561999,143.186 537.678,143.214 C537.794001,143.242 537.884,143.311999 537.948,143.424 C538.012,143.528001 538.03,143.637999 538.002,143.754 C537.974,143.870001 537.904001,143.96 537.792,144.024 L536.508,144.792 C536.54,144.84 536.568,144.888 536.592,144.936 C536.616,144.984 536.64,145.032 536.664,145.08 C536.744,145.200001 536.816,145.304 536.88,145.392 C536.944,145.48 537.014,145.544 537.09,145.584 C537.166,145.624 537.259999,145.636 537.372,145.62 C537.484001,145.604 537.623999,145.56 537.792,145.488 C537.904001,145.44 538.015999,145.436 538.128,145.476 C538.240001,145.516 538.32,145.591999 538.368,145.704 C538.416,145.816001 538.418,145.927999 538.374,146.04 C538.33,146.152001 538.252001,146.232 538.14,146.28 C537.971999,146.36 537.816001,146.416 537.672,146.448 C537.527999,146.48 537.392001,146.496 537.264,146.496 C537.079999,146.496 536.918001,146.464 536.778,146.4 C536.637999,146.336 536.514001,146.256 536.406,146.16 C536.297999,146.064 536.204,145.960001 536.124,145.848 C536.044,145.735999 535.976,145.632 535.92,145.536 L535.764,145.236 L534.48,146.004 C534.4,146.044 534.324,146.064 534.252,146.064 C534.18,146.064 534.11,146.046 534.042,146.01 C533.974,145.974 533.92,145.92 533.88,145.848 C533.816,145.743999 533.798,145.634001 533.826,145.518 C533.854,145.401999 533.919999,145.312 534.024,145.248 L535.38,144.444 C535.243999,144.107998 535.124001,143.766002 535.02,143.418 C534.915999,143.069998 534.82,142.716002 534.732,142.356 L532.416,142.38 C532.432,142.596001 532.446,142.809999 532.458,143.022 C532.47,143.234001 532.484,143.443999 532.5,143.652 L532.968,143.58 C533.088001,143.564 533.198,143.59 533.298,143.658 C533.398,143.726 533.456,143.819999 533.472,143.94 C533.488,144.060001 533.46,144.17 533.388,144.27 C533.316,144.370001 533.220001,144.428 533.1,144.444 L532.548,144.528 C532.564,144.904002 532.576,145.225999 532.584,145.494 C532.592,145.762001 532.592,145.94 532.584,146.028 C532.544,146.300001 532.444001,146.547999 532.284,146.772 C532.123999,146.996001 531.916001,147.167999 531.66,147.288 C531.411999,147.400001 531.156001,147.456 530.892,147.456 C530.491998,147.456 530.088002,147.332001 529.68,147.084 C529.575999,147.02 529.51,146.930001 529.482,146.814 C529.454,146.697999 529.472,146.588001 529.536,146.484 C529.6,146.379999 529.689999,146.314 529.806,146.286 C529.922001,146.258 530.031999,146.276 530.136,146.34 C530.568002,146.612001 530.947998,146.664001 531.276,146.496 C531.396001,146.44 531.494,146.360001 531.57,146.256 C531.646,146.151999 531.692,146.040001 531.708,145.92 C531.716,145.856 531.718,145.714001 531.714,145.494 C531.71,145.273999 531.7,144.996002 531.684,144.66 L529.884,144.936 L529.824,144.936 C529.711999,144.936 529.616,144.902 529.536,144.834 C529.456,144.766 529.408,144.676001 529.392,144.564 C529.376,144.443999 529.404,144.336 529.476,144.24 C529.548,144.144 529.643999,144.088 529.764,144.072 L531.636,143.784 C531.62,143.559999 531.604,143.330001 531.588,143.094 C531.572,142.857999 531.556,142.624001 531.54,142.392 L529.824,142.404 C529.703999,142.404 529.602,142.362 529.518,142.278 C529.434,142.194 529.392,142.092001 529.392,141.972 L529.392,141.972 Z M530.064,139.452 C530.024,139.339999 530.034,139.232001 530.094,139.128 C530.154,139.023999 530.239999,138.952 530.352,138.912 L533.688,137.892 C533.800001,137.852 533.907999,137.862 534.012,137.922 C534.116001,137.982 534.188,138.067999 534.228,138.18 C534.268,138.292001 534.258,138.401999 534.198,138.51 C534.138,138.618001 534.052001,138.688 533.94,138.72 L530.616,139.74 C530.552,139.756 530.508,139.764 530.484,139.764 C530.388,139.764 530.302,139.736 530.226,139.68 C530.15,139.624 530.096,139.548 530.064,139.452 L530.064,139.452 Z M536.256,139.632 C536.143999,139.592 536.066,139.516001 536.022,139.404 C535.978,139.291999 535.98,139.180001 536.028,139.068 C536.076,138.955999 536.155999,138.878 536.268,138.834 C536.380001,138.79 536.491999,138.788 536.604,138.828 L537.732,139.308 C537.844001,139.356 537.922,139.435999 537.966,139.548 C538.01,139.660001 538.008,139.771999 537.96,139.884 C537.928,139.972 537.876,140.038 537.804,140.082 C537.732,140.126 537.652,140.148 537.564,140.148 C537.5,140.148 537.444,140.136 537.396,140.112 L536.256,139.632 Z M530.556,159.908 C530.556,159.555998 530.643999,159.228002 530.82,158.924 C530.996001,158.619998 531.239998,158.354001 531.552,158.126 C531.864002,157.897999 532.229998,157.720001 532.65,157.592 C533.070002,157.463999 533.519998,157.4 534,157.4 C534.480002,157.4 534.929998,157.463999 535.35,157.592 C535.770002,157.720001 536.135998,157.897999 536.448,158.126 C536.760002,158.354001 537.003999,158.619998 537.18,158.924 C537.356001,159.228002 537.444,159.555998 537.444,159.908 C537.444,160.260002 537.356001,160.587998 537.18,160.892 C537.003999,161.196002 536.760002,161.461999 536.448,161.69 C536.135998,161.918001 535.770002,162.095999 535.35,162.224 C534.929998,162.352001 534.480002,162.416 534,162.416 C533.519998,162.416 533.070002,162.352001 532.65,162.224 C532.229998,162.095999 531.864002,161.918001 531.552,161.69 C531.239998,161.461999 530.996001,161.196002 530.82,160.892 C530.643999,160.587998 530.556,160.260002 530.556,159.908 L530.556,159.908 Z M534,158.276 C533.647998,158.276 533.318002,158.32 533.01,158.408 C532.701998,158.496 532.430001,158.613999 532.194,158.762 C531.957999,158.910001 531.772001,159.081999 531.636,159.278 C531.499999,159.474001 531.432,159.683999 531.432,159.908 C531.432,160.132001 531.499999,160.341999 531.636,160.538 C531.772001,160.734001 531.957999,160.905999 532.194,161.054 C532.430001,161.202001 532.701998,161.32 533.01,161.408 C533.318002,161.496 533.647998,161.54 534,161.54 C534.344002,161.54 534.671998,161.496 534.984,161.408 C535.296002,161.32 535.569999,161.202001 535.806,161.054 C536.042001,160.905999 536.227999,160.734001 536.364,160.538 C536.500001,160.341999 536.568,160.132001 536.568,159.908 C536.568,159.683999 536.500001,159.474001 536.364,159.278 C536.227999,159.081999 536.042001,158.910001 535.806,158.762 C535.569999,158.613999 535.296002,158.496 534.984,158.408 C534.671998,158.32 534.344002,158.276 534,158.276 L534,158.276 Z M530.712,163.736 C530.591999,163.736 530.49,163.694 530.406,163.61 C530.322,163.526 530.276,163.424001 530.268,163.304 C530.268,163.183999 530.31,163.08 530.394,162.992 C530.478,162.904 530.579999,162.86 530.7,162.86 L537.432,162.728 L537.444,162.728 C537.556001,162.728 537.656,162.77 537.744,162.854 C537.832,162.938 537.876,163.039999 537.876,163.16 C537.876,163.280001 537.834,163.384 537.75,163.472 C537.666,163.56 537.564001,163.604 537.444,163.604 L534.504,163.664 L534.504,164.252 L536.892,164.276 C537.012001,164.276 537.114,164.32 537.198,164.408 C537.282,164.496 537.324,164.599999 537.324,164.72 C537.324,164.840001 537.28,164.942 537.192,165.026 C537.104,165.11 537.004001,165.152 536.892,165.152 L536.88,165.152 L534.504,165.128 L534.504,165.8 C534.504,165.920001 534.462,166.022 534.378,166.106 C534.294,166.19 534.192001,166.232 534.072,166.232 C533.951999,166.232 533.85,166.19 533.766,166.106 C533.682,166.022 533.64,165.920001 533.64,165.8 L533.64,163.676 L530.712,163.736 Z M530.556,167.528 C530.443999,167.488 530.364,167.412001 530.316,167.3 C530.268,167.187999 530.264,167.076001 530.304,166.964 L531.144,164.708 C531.184,164.595999 531.259999,164.514 531.372,164.462 C531.484001,164.41 531.595999,164.404 531.708,164.444 C531.820001,164.484 531.9,164.559999 531.948,164.672 C531.996,164.784001 532,164.895999 531.96,165.008 L531.528,166.172 C531.616,166.124 531.708,166.104 531.804,166.112 L536.544,166.808 C536.664001,166.824 536.76,166.882 536.832,166.982 C536.904,167.082 536.932,167.191999 536.916,167.312 C536.9,167.424001 536.85,167.514 536.766,167.582 C536.682,167.65 536.588001,167.684 536.484,167.684 C536.468,167.684 536.456,167.682 536.448,167.678 C536.44,167.674 536.428,167.672 536.412,167.672 L531.672,166.976 C531.584,166.96 531.512,166.926 531.456,166.874 C531.4,166.822 531.36,166.76 531.336,166.688 L531.12,167.264 C531.08,167.352 531.024,167.422 530.952,167.474 C530.88,167.526 530.8,167.552 530.712,167.552 C530.672,167.552 530.62,167.544 530.556,167.528 L530.556,167.528 Z M532.596,160.232 C532.475999,160.224 532.376,160.178 532.296,160.094 C532.216,160.01 532.176,159.908001 532.176,159.788 C532.184,159.667999 532.23,159.566 532.314,159.482 C532.398,159.398 532.499999,159.356 532.62,159.356 L532.632,159.356 L534.9,159.428 C535.020001,159.436 535.12,159.484 535.2,159.572 C535.28,159.66 535.32,159.763999 535.32,159.884 C535.312,160.004001 535.266,160.104 535.182,160.184 C535.098,160.264 534.996001,160.304 534.876,160.304 L534.864,160.304 L532.596,160.232 Z M529.056,184.696 C529.056,184.423999 529.109999,184.164001 529.218,183.916 C529.326001,183.667999 529.473999,183.450001 529.662,183.262 C529.850001,183.073999 530.071999,182.922001 530.328,182.806 C530.584001,182.689999 530.859999,182.62 531.156,182.596 C531.132,182.532 531.124,182.468 531.132,182.404 L531.288,181.168 L529.752,180.988 C529.631999,180.972 529.534,180.918 529.458,180.826 C529.382,180.734 529.352,180.628001 529.368,180.508 C529.384,180.387999 529.438,180.29 529.53,180.214 C529.622,180.138 529.727999,180.108 529.848,180.124 L531.396,180.292 L531.6,178.732 C531.616,178.619999 531.67,178.526 531.762,178.45 C531.854,178.374 531.959999,178.344 532.08,178.36 C532.200001,178.376 532.298,178.432 532.374,178.528 C532.45,178.624 532.48,178.731999 532.464,178.852 L532.26,180.388 L533.364,180.52 C533.484001,180.536 533.582,180.59 533.658,180.682 C533.734,180.774 533.764,180.879999 533.748,181 C533.732,181.112001 533.684,181.204 533.604,181.276 C533.524,181.348 533.428001,181.384 533.316,181.384 L533.268,181.384 L532.152,181.264 L531.996,182.512 C531.988,182.568 531.968,182.624 531.936,182.68 C532.176001,182.744 532.395999,182.839999 532.596,182.968 C532.796001,183.096001 532.967999,183.247999 533.112,183.424 C533.256001,183.600001 533.37,183.795999 533.454,184.012 C533.538,184.228001 533.58,184.455999 533.58,184.696 C533.58,184.984001 533.520001,185.255999 533.4,185.512 C533.279999,185.768001 533.118001,185.991999 532.914,186.184 C532.709999,186.376001 532.472001,186.527999 532.2,186.64 C531.927999,186.752001 531.636002,186.808 531.324,186.808 C531.011998,186.808 530.718001,186.752001 530.442,186.64 C530.165999,186.527999 529.926001,186.376001 529.722,186.184 C529.517999,185.991999 529.356001,185.768001 529.236,185.512 C529.115999,185.255999 529.056,184.984001 529.056,184.696 L529.056,184.696 Z M536.628,179.668 C537.156003,179.676 537.613998,179.897998 538.002,180.334 C538.390002,180.770002 538.663999,181.399996 538.824,182.224 C538.904,182.632002 538.948,183.081998 538.956,183.574 C538.964,184.066002 538.926,184.539998 538.842,184.996 C538.758,185.452002 538.624001,185.855998 538.44,186.208 C538.255999,186.560002 538.016001,186.791999 537.72,186.904 C537.656,186.928 537.604,186.94 537.564,186.94 C537.476,186.94 537.394,186.914 537.318,186.862 C537.242,186.81 537.188,186.74 537.156,186.652 C537.108,186.539999 537.11,186.428001 537.162,186.316 C537.214,186.203999 537.295999,186.128 537.408,186.088 C537.520001,186.048 537.627999,185.916001 537.732,185.692 C537.836001,185.467999 537.92,185.184002 537.984,184.84 C538.048,184.495998 538.082,184.112002 538.086,183.688 C538.09,183.263998 538.052,182.832002 537.972,182.392 C537.948,182.255999 537.906,182.082001 537.846,181.87 C537.786,181.657999 537.704001,181.454001 537.6,181.258 C537.495999,181.061999 537.366001,180.894001 537.21,180.754 C537.053999,180.613999 536.868001,180.544 536.652,180.544 L536.64,180.544 C536.231998,180.544 535.900001,180.695998 535.644,181 C535.499999,181.176001 535.386,181.387999 535.302,181.636 C535.218,181.884001 535.156,182.149999 535.116,182.434 C535.076,182.718001 535.052,183.013998 535.044,183.322 C535.036,183.630002 535.04,183.931999 535.056,184.228 C535.12,184.067999 535.243999,183.98 535.428,183.964 L536.928,183.904 C537.048001,183.904 537.152,183.944 537.24,184.024 C537.328,184.104 537.376,184.203999 537.384,184.324 C537.392,184.444001 537.356,184.548 537.276,184.636 C537.196,184.724 537.096001,184.768 536.976,184.768 L535.464,184.84 L535.452,184.84 C535.291999,184.84 535.172,184.768001 535.092,184.624 C535.108,184.904001 535.132,185.157999 535.164,185.386 C535.196,185.614001 535.228,185.807999 535.26,185.968 C535.284,186.088001 535.264,186.198 535.2,186.298 C535.136,186.398 535.044001,186.46 534.924,186.484 C534.803999,186.508 534.694001,186.486 534.594,186.418 C534.493999,186.35 534.432,186.256001 534.408,186.136 C534.4,186.112 534.378,185.992001 534.342,185.776 C534.306,185.559999 534.27,185.288002 534.234,184.96 C534.198,184.631998 534.174,184.266002 534.162,183.862 C534.15,183.457998 534.166,183.050002 534.21,182.638 C534.254,182.225998 534.333999,181.830002 534.45,181.45 C534.566001,181.069998 534.735999,180.740001 534.96,180.46 C535.376002,179.947997 535.931997,179.684 536.628,179.668 L536.628,179.668 Z M531.324,183.46 C531.131999,183.46 530.952001,183.492 530.784,183.556 C530.615999,183.62 530.468001,183.707999 530.34,183.82 C530.211999,183.932001 530.112,184.063999 530.04,184.216 C529.968,184.368001 529.932,184.527999 529.932,184.696 C529.932,184.864001 529.968,185.023999 530.04,185.176 C530.112,185.328001 530.211999,185.459999 530.34,185.572 C530.468001,185.684001 530.615999,185.772 530.784,185.836 C530.952001,185.9 531.131999,185.932 531.324,185.932 C531.516001,185.932 531.695999,185.9 531.864,185.836 C532.032001,185.772 532.179999,185.684001 532.308,185.572 C532.436001,185.459999 532.536,185.328001 532.608,185.176 C532.68,185.023999 532.716,184.864001 532.716,184.696 C532.716,184.527999 532.68,184.368001 532.608,184.216 C532.536,184.063999 532.436001,183.932001 532.308,183.82 C532.179999,183.707999 532.032001,183.62 531.864,183.556 C531.695999,183.492 531.516001,183.46 531.324,183.46 L531.324,183.46 Z M536.796,181.732 C536.916001,181.716 537.022,181.748 537.114,181.828 C537.206,181.908 537.26,182.003999 537.276,182.116 C537.292,182.236001 537.26,182.342 537.18,182.434 C537.1,182.526 537.004001,182.58 536.892,182.596 L535.704,182.728 L535.656,182.728 C535.543999,182.728 535.446,182.692 535.362,182.62 C535.278,182.548 535.228,182.456001 535.212,182.344 C535.196,182.223999 535.228,182.118 535.308,182.026 C535.388,181.934 535.487999,181.88 535.608,181.864 L536.796,181.732 Z M535.08,201.048 C535.488002,200.783999 535.759999,200.556001 535.896,200.364 C536.032001,200.171999 536.092,200.028 536.076,199.932 C536.036,199.795999 535.852002,199.650001 535.524,199.494 C535.195998,199.337999 534.736003,199.22 534.144,199.14 C534.023999,199.124 533.928,199.068 533.856,198.972 C533.784,198.876 533.756,198.772001 533.772,198.66 C533.788,198.539999 533.842,198.442 533.934,198.366 C534.026,198.29 534.131999,198.26 534.252,198.276 C534.476001,198.3 534.729999,198.344 535.014,198.408 C535.298001,198.472 535.571999,198.559999 535.836,198.672 C536.100001,198.784001 536.331999,198.927999 536.532,199.104 C536.732001,199.280001 536.86,199.491999 536.916,199.74 C537.052001,200.316003 536.728004,200.903997 535.944,201.504 L537.804,202.08 C537.916001,202.12 538.002,202.191999 538.062,202.296 C538.122,202.400001 538.132,202.507999 538.092,202.62 C538.06,202.716 538.004,202.792 537.924,202.848 C537.844,202.904 537.76,202.932 537.672,202.932 C537.648,202.932 537.626,202.93 537.606,202.926 C537.586,202.922 537.564,202.916 537.54,202.908 L534.996,202.116 C534.491997,202.404001 533.980003,202.647999 533.46,202.848 C532.939997,203.048001 532.468002,203.213999 532.044,203.346 C531.619998,203.478001 531.266001,203.576 530.982,203.64 C530.697999,203.704 530.544,203.74 530.52,203.748 C530.504,203.756 530.476,203.76 530.436,203.76 C530.331999,203.76 530.24,203.728 530.16,203.664 C530.08,203.6 530.028,203.512001 530.004,203.4 C529.988,203.287999 530.012,203.182001 530.076,203.082 C530.14,202.982 530.231999,202.92 530.352,202.896 C530.36,202.896 530.463999,202.872 530.664,202.824 C530.864001,202.776 531.125998,202.706 531.45,202.614 C531.774002,202.522 532.139998,202.406001 532.548,202.266 C532.956002,202.125999 533.371998,201.956001 533.796,201.756 L532.044,201.204 C531.931999,201.164 531.846,201.092001 531.786,200.988 C531.726,200.883999 531.716,200.776001 531.756,200.664 C531.796,200.551999 531.867999,200.466 531.972,200.406 C532.076001,200.346 532.187999,200.336 532.308,200.376 L534.876,201.168 C534.916,201.152 534.952,201.134 534.984,201.114 C535.016,201.094 535.048,201.072 535.08,201.048 L535.08,201.048 Z M532.836,197.592 C532.940001,197.528 533.049999,197.506 533.166,197.526 C533.282001,197.546 533.376,197.604 533.448,197.7 C533.52,197.796 533.546,197.903999 533.526,198.024 C533.506,198.144001 533.444001,198.24 533.34,198.312 L530.352,200.412 C530.288,200.468 530.204001,200.496 530.1,200.496 C529.955999,200.496 529.836,200.436001 529.74,200.316 C529.676,200.211999 529.654,200.100001 529.674,199.98 C529.694,199.859999 529.752,199.768 529.848,199.704 L532.836,197.592 Z M532.608,207.876 C532.495999,207.836 532.414,207.762001 532.362,207.654 C532.31,207.545999 532.304,207.436001 532.344,207.324 L533.28,204.696 C533.007999,204.736 532.760001,204.78 532.536,204.828 C532.311999,204.876 532.128001,204.92 531.984,204.96 C531.871999,204.992 531.764001,204.978 531.66,204.918 C531.555999,204.858 531.488,204.772001 531.456,204.66 C531.416,204.547999 531.426,204.438001 531.486,204.33 C531.546,204.221999 531.635999,204.152 531.756,204.12 C531.836,204.096 532.047998,204.044 532.392,203.964 C532.736002,203.884 533.139998,203.824 533.604,203.784 L533.916,202.896 C533.956,202.783999 534.029999,202.702 534.138,202.65 C534.246001,202.598 534.355999,202.592 534.468,202.632 C534.580001,202.672 534.662,202.745999 534.714,202.854 C534.766,202.962001 534.772,203.071999 534.732,203.184 L534.54,203.748 C534.892002,203.764 535.229998,203.81 535.554,203.886 C535.878002,203.962 536.163999,204.091999 536.412,204.276 C536.892002,204.628002 537.14,205.131997 537.156,205.788 C537.18,206.788005 536.940003,207.447998 536.436,207.768 C536.323999,207.84 536.212001,207.89 536.1,207.918 C535.987999,207.946 535.880001,207.96 535.776,207.96 C535.583999,207.96 535.420001,207.934 535.284,207.882 C535.147999,207.83 535.068,207.796 535.044,207.78 C534.931999,207.724 534.858,207.640001 534.822,207.528 C534.786,207.415999 534.796,207.304001 534.852,207.192 C534.908,207.079999 534.991999,207.006 535.104,206.97 C535.216001,206.934 535.327999,206.944 535.44,207 C535.504,207.024 535.568,207.044 535.632,207.06 C535.688,207.076 535.746,207.084 535.806,207.084 C535.866,207.084 535.92,207.064 535.968,207.024 C535.992,207.008 536.024,206.978 536.064,206.934 C536.104,206.89 536.142,206.824 536.178,206.736 C536.214,206.648 536.242,206.530001 536.262,206.382 C536.282,206.233999 536.292,206.044001 536.292,205.812 C536.284,205.435998 536.152001,205.156001 535.896,204.972 C535.703999,204.835999 535.460001,204.742 535.164,204.69 C534.867999,204.638 534.556002,204.616 534.228,204.624 L533.172,207.612 C533.092,207.804001 532.952001,207.9 532.752,207.9 C532.688,207.9 532.64,207.892 532.608,207.876 L532.608,207.876 Z M529.668,221.552 L533.148,221.624 L533.736,220.748 C533.8,220.643999 533.891999,220.58 534.012,220.556 C534.132001,220.532 534.243999,220.556 534.348,220.628 C534.444,220.692 534.504,220.783999 534.528,220.904 C534.552,221.024001 534.532,221.132 534.468,221.228 L534.18,221.648 L537.456,221.72 C537.576001,221.728 537.678,221.774 537.762,221.858 C537.846,221.942 537.884,222.047999 537.876,222.176 C537.876,222.288001 537.834,222.386 537.75,222.47 C537.666,222.554 537.564001,222.596 537.444,222.596 L537.432,222.596 L533.604,222.512 L532.32,224.408 C532.28,224.472 532.226,224.52 532.158,224.552 C532.09,224.584 532.024,224.6 531.96,224.6 C531.92,224.6 531.878,224.596 531.834,224.588 C531.79,224.58 531.748,224.56 531.708,224.528 C531.612,224.464 531.552,224.372001 531.528,224.252 C531.504,224.131999 531.528,224.024 531.6,223.928 L532.56,222.488 L529.656,222.428 C529.527999,222.42 529.424,222.374 529.344,222.29 C529.264,222.206 529.224,222.100001 529.224,221.972 C529.224,221.859999 529.268,221.762 529.356,221.678 C529.444,221.594 529.543999,221.552 529.656,221.552 L529.668,221.552 Z M535.968,217.868 C536.216001,217.868 536.451999,217.912 536.676,218 C536.900001,218.088 537.095999,218.205999 537.264,218.354 C537.432001,218.502001 537.564,218.677999 537.66,218.882 C537.756,219.086001 537.804,219.299999 537.804,219.524 C537.804,219.756001 537.756,219.973999 537.66,220.178 C537.564,220.382001 537.432001,220.557999 537.264,220.706 C537.095999,220.854001 536.900001,220.972 536.676,221.06 C536.451999,221.148 536.216001,221.192 535.968,221.192 C535.711999,221.192 535.474001,221.148 535.254,221.06 C535.033999,220.972 534.840001,220.854001 534.672,220.706 C534.503999,220.557999 534.372,220.382001 534.276,220.178 C534.18,219.973999 534.132,219.756001 534.132,219.524 C534.132,219.299999 534.18,219.086001 534.276,218.882 C534.372,218.677999 534.503999,218.502001 534.672,218.354 C534.840001,218.205999 535.033999,218.088 535.254,218 C535.474001,217.912 535.711999,217.868 535.968,217.868 L535.968,217.868 Z M532.584,227.948 C532.335999,227.948 532.102001,227.904 531.882,227.816 C531.661999,227.728 531.472001,227.606001 531.312,227.45 C531.151999,227.293999 531.024,227.114001 530.928,226.91 C530.832,226.705999 530.784,226.488001 530.784,226.256 C530.784,226.023999 530.832,225.804001 530.928,225.596 C531.024,225.387999 531.151999,225.208001 531.312,225.056 C531.472001,224.903999 531.661999,224.784 531.882,224.696 C532.102001,224.608 532.335999,224.564 532.584,224.564 C532.832001,224.564 533.065999,224.608 533.286,224.696 C533.506001,224.784 533.695999,224.903999 533.856,225.056 C534.016001,225.208001 534.144,225.387999 534.24,225.596 C534.336,225.804001 534.384,226.023999 534.384,226.256 C534.384,226.488001 534.336,226.705999 534.24,226.91 C534.144,227.114001 534.016001,227.293999 533.856,227.45 C533.695999,227.606001 533.506001,227.728 533.286,227.816 C533.065999,227.904 532.832001,227.948 532.584,227.948 L532.584,227.948 Z M529.884,219.788 C529.884,219.571999 529.93,219.366001 530.022,219.17 C530.114,218.973999 530.239999,218.804001 530.4,218.66 C530.560001,218.515999 530.747999,218.402 530.964,218.318 C531.180001,218.234 531.407999,218.192 531.648,218.192 C532.168003,218.192 532.603998,218.367998 532.956,218.72 C533.108001,218.864001 533.222,219.027999 533.298,219.212 C533.374,219.396001 533.412,219.591999 533.412,219.8 C533.412,220.016001 533.366,220.221999 533.274,220.418 C533.182,220.614001 533.056001,220.783999 532.896,220.928 C532.735999,221.072001 532.548001,221.186 532.332,221.27 C532.115999,221.354 531.888001,221.396 531.648,221.396 C531.407999,221.396 531.180001,221.354 530.964,221.27 C530.747999,221.186 530.560001,221.072001 530.4,220.928 C530.239999,220.783999 530.114,220.614001 530.022,220.418 C529.93,220.221999 529.884,220.012001 529.884,219.788 L529.884,219.788 Z M536.424,224.672 C536.648001,224.672 536.861999,224.714 537.066,224.798 C537.270001,224.882 537.445999,224.999999 537.594,225.152 C537.742001,225.304001 537.86,225.479999 537.948,225.68 C538.036,225.880001 538.08,226.091999 538.08,226.316 C538.08,226.548001 538.036,226.763999 537.948,226.964 C537.86,227.164001 537.742001,227.337999 537.594,227.486 C537.445999,227.634001 537.270001,227.752 537.066,227.84 C536.861999,227.928 536.648001,227.972 536.424,227.972 C536.191999,227.972 535.974001,227.928 535.77,227.84 C535.565999,227.752 535.390001,227.634001 535.242,227.486 C535.093999,227.337999 534.976,227.164001 534.888,226.964 C534.8,226.763999 534.756,226.548001 534.756,226.316 C534.756,226.091999 534.8,225.880001 534.888,225.68 C534.976,225.479999 535.093999,225.304001 535.242,225.152 C535.390001,224.999999 535.565999,224.882 535.77,224.798 C535.974001,224.714 536.191999,224.672 536.424,224.672 L536.424,224.672 Z M535.968,220.328 C536.232001,220.328 536.457999,220.250001 536.646,220.094 C536.834001,219.937999 536.928,219.748001 536.928,219.524 C536.928,219.307999 536.834001,219.122001 536.646,218.966 C536.457999,218.809999 536.232001,218.732 535.968,218.732 C535.703999,218.732 535.478001,218.809999 535.29,218.966 C535.101999,219.122001 535.008,219.307999 535.008,219.524 C535.008,219.748001 535.101999,219.937999 535.29,220.094 C535.478001,220.250001 535.703999,220.328 535.968,220.328 L535.968,220.328 Z M532.584,225.428 C532.327999,225.428 532.110001,225.507999 531.93,225.668 C531.749999,225.828001 531.66,226.023999 531.66,226.256 C531.66,226.480001 531.749999,226.671999 531.93,226.832 C532.110001,226.992001 532.327999,227.072 532.584,227.072 C532.840001,227.072 533.057999,226.992001 533.238,226.832 C533.418001,226.671999 533.508,226.480001 533.508,226.256 C533.508,226.023999 533.418001,225.828001 533.238,225.668 C533.057999,225.507999 532.840001,225.428 532.584,225.428 L532.584,225.428 Z M532.536,219.788 C532.536,219.683999 532.514,219.594 532.47,219.518 C532.426,219.442 532.384,219.38 532.344,219.332 C532.151999,219.155999 531.920001,219.068 531.648,219.068 C531.399999,219.068 531.190001,219.137999 531.018,219.278 C530.845999,219.418001 530.76,219.587999 530.76,219.788 C530.76,219.996001 530.845999,220.169999 531.018,220.31 C531.190001,220.450001 531.399999,220.52 531.648,220.52 C531.896001,220.52 532.105999,220.450001 532.278,220.31 C532.450001,220.169999 532.536,219.996001 532.536,219.788 L532.536,219.788 Z M535.056,223.808 C534.943999,223.76 534.868,223.680001 534.828,223.568 C534.788,223.455999 534.792,223.344001 534.84,223.232 C534.896,223.119999 534.979999,223.044 535.092,223.004 C535.204001,222.964 535.315999,222.968 535.428,223.016 L536.832,223.676 C536.944001,223.724 537.02,223.803999 537.06,223.916 C537.1,224.028001 537.096,224.139999 537.048,224.252 C536.968,224.420001 536.836001,224.504 536.652,224.504 C536.588,224.504 536.528,224.492 536.472,224.468 L535.056,223.808 Z M536.424,227.096 C536.640001,227.096 536.825999,227.020001 536.982,226.868 C537.138001,226.715999 537.216,226.532001 537.216,226.316 C537.216,226.099999 537.138001,225.916001 536.982,225.764 C536.825999,225.611999 536.640001,225.536 536.424,225.536 C536.207999,225.536 536.022001,225.611999 535.866,225.764 C535.709999,225.916001 535.632,226.099999 535.632,226.316 C535.632,226.532001 535.709999,226.715999 535.866,226.868 C536.022001,227.020001 536.207999,227.096 536.424,227.096 L536.424,227.096 Z M539.352,221.492 C539.416,221.604001 539.434,221.715999 539.406,221.828 C539.378,221.940001 539.308001,222.028 539.196,222.092 C539.116,222.132 539.044,222.152 538.98,222.152 C538.908,222.152 538.838,222.132 538.77,222.092 C538.702,222.052 538.648,222 538.608,221.936 L538.284,221.384 C538.22,221.271999 538.202,221.160001 538.23,221.048 C538.258,220.935999 538.327999,220.848 538.44,220.784 C538.544001,220.72 538.651999,220.704 538.764,220.736 C538.876001,220.768 538.964,220.835999 539.028,220.94 L539.352,221.492 Z" id="我-是-胡-务-器" stroke="#979797" fill="#555555" transform="translate(534.528000, 182.920000) rotate(-2.000000) translate(-534.528000, -182.920000) "></path>
        </g>
    </g>
</svg>