<?xml version="1.0" encoding="UTF-8"?>
<svg width="600px" height="460px" viewBox="0 0 600 460" version="1.1" xmlns="http://www.w3.org/2000/svg" xmlns:xlink="http://www.w3.org/1999/xlink">
    <!-- Generator: Sketch 39.1 (31720) - http://www.bohemiancoding.com/sketch -->
    <title>v</title>
    <desc>Created with Sketch.</desc>
    <defs>
        <rect id="path-1" x="18" y="84" width="245" height="199" rx="5"></rect>
        <mask id="mask-2" maskContentUnits="userSpaceOnUse" maskUnits="objectBoundingBox" x="0" y="0" width="245" height="199" fill="white">
            <use xlink:href="#path-1"></use>
        </mask>
        <path d="M29,224.498047 L27.2269925,162.001263 C27.101628,157.582288 30.5797506,154.109305 34.9988176,154.244239 L92.5,156 L162.016038,153.144418 L246.991762,153.926313 C251.41459,153.967009 254.925246,157.588171 254.833185,162.007097 L254,202 L254.868754,254.993976 C254.941239,259.415581 251.411571,262.949812 247.005283,262.888186 L112,261 L34.9965936,262.811845 C30.5801969,262.91576 27.1854638,259.42964 27.4150083,255.010685 L29,224.498047 Z" id="path-3"></path>
        <mask id="mask-4" maskContentUnits="userSpaceOnUse" maskUnits="objectBoundingBox" x="0" y="0" width="227.646143" height="109.744562" fill="white">
            <use xlink:href="#path-3"></use>
        </mask>
    </defs>
    <g id="Page-1" stroke="none" stroke-width="1" fill="none" fill-rule="evenodd">
        <g id="v">
            <use id="Rectangle" stroke="#979797" mask="url(#mask-2)" stroke-width="2" fill="#FFFFFF" xlink:href="#path-1"></use>
            <path d="" id="Path-2" stroke="#979797"></path>
            <path d="" id="Path-3" stroke="#979797"></path>
            <path d="" id="Path-4" stroke="#979797"></path>
            <path d="" id="Path-5" stroke="#979797"></path>
            <path d="M30.5641026,118.866159 C40.5860544,118.815707 50.6050496,118.685483 60.6299579,118.714801 C76.5004851,118.761215 92.3311524,119.179509 108.195813,119.093197 C129.51228,118.977224 150.591901,118.204412 171.912009,118.109368 C184.66427,118.052519 197.306285,118.554099 210.053035,118.639122 C223.802386,118.730833 237.573234,118.639122 251.333333,118.639122" id="Path-6" stroke="#979797"></path>
            <circle id="Oval" stroke="#979797" cx="37.5" cy="107.5" r="5.5"></circle>
            <circle id="Oval-Copy" stroke="#979797" cx="54.5" cy="107.5" r="5.5"></circle>
            <circle id="Oval-Copy-2" stroke="#979797" cx="71.5" cy="107.5" r="5.5"></circle>
            <path d="" id="Path-7" stroke="#979797"></path>
            <path d="M39.5,104.5 L35.5,111.25" id="Path-8" stroke="#979797"></path>
            <path d="M35,105.5 L41.5,110.5" id="Path-9" stroke="#979797"></path>
            <path d="M52,107 L57.5,106.75" id="Path-10" stroke="#979797"></path>
            <path d="M68.25,108 C70.9166667,107.666667 73.5833333,107.333333 76.25,107" id="Path-11" stroke="#979797"></path>
            <path d="" id="Path-12" stroke="#979797"></path>
            <path d="" id="Path-13" stroke="#979797"></path>
            <path d="M70.75,105 L72.25,111" id="Path-14" stroke="#979797"></path>
            <path d="M86.3132262,117.749023 C88.6331617,112.749349 93.2730327,102.75 93.2730327,102.75 C93.2730327,102.75 110.316186,101.003657 118.909155,100.75 C132.934876,100.335973 146.986812,100.75 161.025641,100.75" id="Path-15" stroke="#979797"></path>
            <path d="M88.3141026,127.643473 C89.0608706,131.794449 87.9924276,136.833689 90.5544067,139.206905 C92.9233519,141.401311 96.0305944,139.301979 98.8767864,139.206905 C118.287858,138.558503 137.717938,138.845243 157.125944,139.651653 C186.636425,140.877824 215.021434,142.34432 244.574392,137.65029" id="Path-17" stroke="#979797"></path>
            <path d="" id="Path-18" stroke="#979797"></path>
            <path d="" id="Path-19" stroke="#979797"></path>
            <path d="M88.3147276,126.531604 C127.626522,126.45748 166.938317,126.383355 206.250112,126.309231" id="Path-20" stroke="#979797"></path>
            <path d="M196.878084,126.498754 C206.761545,126.202256 216.642097,125.478617 226.528466,125.60926 C233.488377,125.701231 246.616741,123.161326 248.465932,126.498754 C249.962678,129.200089 249.721434,133.132382 248.465932,136.649608 C247.995973,137.966174 245.344266,137.613227 244.075477,137.761476" id="Path-21" stroke="#979797"></path>
            <path d="M35.25,131.25 C32.5307836,136.990568 31.2683896,135.733598 36.25,136.5" id="Path-22" stroke="#979797"></path>
            <polyline id="Path-23" stroke="#979797" points="34.5 134.25 35.75 134.5 36 134.5 36.2509766 134.5 38.2509766 134.25 38.5009766 134.25 39.5 134 39.75 134 40.25 134 40.25 134 40.5 134 40.75 134 40.75 134 41 134 41 134 41 134 41 134 41.25 134 41.25 134 41.25 134 41.25 134 41.25 134 41.25 134 41.25 134 41 134.25"></polyline>
            <path d="M46.75,133.25 C49.4166667,133.083333 52.0833333,132.916667 54.75,132.75" id="Path-24" stroke="#979797"></path>
            <path d="M52.75,130.5 C60.9744505,133.546093 61.5346563,131.72834 55.5,135.5" id="Path-25" stroke="#979797"></path>
            <path d="M72,136.25 C63.7193256,138.160925 65.7939511,127.112634 70.5,130.25" id="Path-26" stroke="#979797"></path>
            <path d="M69,127.5 C73.189706,131.689706 74.0505802,130.436153 69.75,132" id="Path-27" stroke="#979797"></path>
            <path d="M160.801282,100.5 C160.801282,100.5 168.189951,106.966177 172.692308,117" id="Path-28" stroke="#979797"></path>
            <path d="M165.961538,105.5 C169.798601,100.218397 168.297053,99.2268242 173.814103,99.5 C244.499998,103 221.499998,87.5 236.858974,116.75" id="Path-16" stroke="#979797"></path>
            <use id="Rectangle-2" stroke="#979797" mask="url(#mask-4)" stroke-width="2" xlink:href="#path-3"></use>
            <path d="M419,85.3607854 L488,59 L555,74.4027816 L557,250.573766 L511,291.034088 C511,291.034088 431,295.248705 425,263.217617 C419,231.186528 419,85.3607854 419,85.3607854 Z" id="Path-29" stroke="#979797"></path>
            <path d="M419,83.8730469 C419,83.8730469 487,118 503,106 C519,94 554.5,76 554.5,76" id="Path-30" stroke="#979797"></path>
            <path d="M503.5,108.96264 L510,290.612626" id="Path-31" stroke="#979797"></path>
            <path d="" id="Path-32" stroke="#979797"></path>
            <path d="M433.998047,129.191154 C435.499349,129.472678 440.003362,130.31684 438.501953,130.035724 L442.5,129.614262 C418.457189,125.112606 447.924961,134.96676 444.5,129.192801" id="Path-33" stroke="#979797"></path>
            <path d="M461.998047,130.034078 C485.396883,131.271305 459.866495,129.501728 462,131.300109 C464.006932,132.991799 467.661769,130.878647 470.5,130.878647 C472.839278,130.878647 461.845881,129.905813 463.5,131.300109 C465.517286,133.000527 469.166667,131.862058 472,132.143032" id="Path-34" stroke="#979797"></path>
            <path d="M449.498047,139.727696 L458,140.572266 L449,140.572266 C449,140.572266 455.21442,139.633421 458,140.572266 C460.03658,141.25867 453.686957,141.325604 451.496094,141.413543 C450.155276,141.467363 448.746261,141.414093 447.5,140.993728 C447.010103,140.828485 448.474289,140.572266 449.001953,140.572266 L457.001953,141.41519 C457.472898,141.41519 457.667318,140.853241 458,140.572266" id="Path-35" stroke="#979797"></path>
            <path d="" id="Path-36" stroke="#979797"></path>
            <path d="" id="Path-37" stroke="#979797"></path>
            <path d="M458.948223,195.544385 C446.538749,193.998505 447.345917,210.994644 459.450177,210.546338 C474.507449,209.988661 462.709482,197.472278 456.450177,195.546338" id="Path-38" stroke="#979797"></path>
            <path d="M440,228 C458.876199,236.389422 458.601173,239.044921 478.5,230" id="Path-39" stroke="#979797"></path>
            <path d="M437.5,236 C452.907381,244.666652 469.808019,249.981822 480.5,236" id="Path-40" stroke="#979797"></path>
            <path d="M437,245 C450.131187,256.255303 475.337386,259.367402 483,245" id="Path-41" stroke="#979797"></path>
            <path d="" id="Path-42" stroke="#979797"></path>
            <path d="M326,1 C320.500233,11.9995347 325,1.37544603 325,27 C325,56.6685393 322.342813,86.3777794 324,116 C325.019289,134.219798 331.151152,193.918901 330,225 C328.975936,252.649717 327.028689,280.40164 329,308 C329.721126,318.095763 333.302384,356.501376 330,410 C328.911343,427.636242 330.087264,445.353778 331,463 C331.092724,464.792659 331.563956,466.922967 333,468 C333.754247,468.565685 334.333333,466.666667 335,466" id="Path-43" stroke="#D6D6D6" stroke-dasharray="3"></path>
            <path d="" id="Path-46" stroke="#979797"></path>
            <path d="" id="Path-44" stroke="#979797"></path>
            <path d="" id="Path-45" stroke="#979797"></path>
            <path d="M264,217 C291.431316,219.286687 267.283565,208.78344 317.003906,215 C333,217 308.546239,217 365.003906,217 C369.575187,217 391.04007,213.719508 392,207 C395.039128,185.726104 381.586575,109.382744 400,81 C410.900127,64.1983722 438.732096,60.1100797 453,72 C453.923287,72.7694059 454.564394,73.8798698 455,75 C468.715163,110.267562 456.259126,87.4817483 458,84" id="Path-47" stroke="#979797"></path>
            <path d="" id="Path-48" stroke="#979797"></path>
            <path d="M459,92 C459.666667,91 461.291492,87.8340338 461,89 L463,90 C462.657003,91.3719887 460.632456,94.2649111 460,93 L458,93 C457.666667,92.3333333 458.254644,91 459,91 C461.666667,91 459.333333,95.3333333 458,94 C455.664911,91.664911 459.512717,89.5042389 461,90 C463.287783,90.7625945 456.808238,93.7876424 460,89 C460.1849,88.7226499 461.235702,88.7642977 461,89 L460,92 C457.333333,94.6666667 462,84.6666667 462,90 C462,94.619685 457.12868,90.9142135 460,89 C460.877058,88.4152947 462.254644,89.254644 463,90 C463.333333,90.3333333 462.114332,91.4573296 462,91 L460,92 C459.666667,90.6666667 460.666667,89.3333333 461,88" id="Path-49" stroke="#979797"></path>
        </g>
    </g>
</svg>