<?xml version="1.0" encoding="UTF-8"?>
<svg width="339px" height="213px" viewBox="0 0 339 213" version="1.1" xmlns="http://www.w3.org/2000/svg" xmlns:xlink="http://www.w3.org/1999/xlink">
    <!-- Generator: Sketch 39.1 (31720) - http://www.bohemiancoding.com/sketch -->
    <title>Group</title>
    <desc>Created with Sketch.</desc>
    <defs>
        <path d="M0,81.0796587 C3.72296881e-15,44.4303051 6.23854325,15.6848273 6.23854325,15.6848273 C7.05841612,11.3525199 10.7334036,6.08093162 15.0156456,4.9599439 C15.0156456,4.9599439 7.35706665,2.21304506e-14 114.612273,1.42108547e-14 C221.867479,6.29125878e-15 321.537263,7.29227896 321.537263,7.29227896 C325.944343,7.595048 331.021534,11.0756624 332.362475,15.2822555 C332.362475,15.2822555 338.09816,19.6591659 338.09816,81.0337184 C338.09816,142.408271 330.539303,195.919798 330.539303,195.919798 C329.974694,200.301052 325.95142,204.194649 321.557497,204.601318 C321.557497,204.601318 237.334668,213 160.776294,213 C84.2179203,213 15.6723276,204.738148 15.6723276,204.738148 C11.2820653,204.249162 7.40832392,200.277171 7.02918461,195.88371 C7.02918461,195.88371 3.72296881e-15,117.729012 0,81.0796587 Z" id="path-1"></path>
        <mask id="mask-2" maskContentUnits="userSpaceOnUse" maskUnits="objectBoundingBox" x="0" y="0" width="338.09816" height="213" fill="white">
            <use xlink:href="#path-1"></use>
        </mask>
    </defs>
    <g id="Page-1" stroke="none" stroke-width="1" fill="none" fill-rule="evenodd">
        <g id="Artboard" transform="translate(-117.000000, -90.000000)" stroke="#979797">
            <g id="Group" transform="translate(117.000000, 90.000000)">
                <use id="Rectangle-3" mask="url(#mask-2)" stroke-width="2" fill="#FFFFFF" xlink:href="#path-1"></use>
                <path d="M118.696,93.936 C119.992006,98.9760252 121.527991,103.727978 123.304,108.192 L134.536,102.432 C135.208003,102.095998 135.879997,102.035999 136.552,102.252 C137.224003,102.468001 137.727998,102.911997 138.064,103.584 C138.448002,104.256003 138.520001,104.927997 138.28,105.6 C138.039999,106.272003 137.608003,106.775998 136.984,107.112 L125.464,113.016 C125.992003,114.120006 126.531997,115.151995 127.084,116.112 C127.636003,117.072005 128.199997,117.959996 128.776,118.776 C129.400003,119.640004 129.987997,120.371997 130.54,120.972 C131.092003,121.572003 131.703997,122.015999 132.376,122.304 C133.048003,122.592001 133.815996,122.712 134.68,122.664 C135.544004,122.616 136.599994,122.328003 137.848,121.8 C138.520003,121.511999 139.179997,121.499999 139.828,121.764 C140.476003,122.028001 140.943999,122.495997 141.232,123.168 C141.520001,123.840003 141.532001,124.511997 141.268,125.184 C141.003999,125.856003 140.536003,126.335999 139.864,126.624 C137.607989,127.488004 135.688008,127.92 134.104,127.92 C132.855994,127.92 131.740005,127.716002 130.756,127.308 C129.771995,126.899998 128.896004,126.396003 128.128,125.796 C127.359996,125.195997 126.688003,124.536004 126.112,123.816 C125.535997,123.095996 125.032002,122.448003 124.6,121.872 C123.927997,120.911995 123.280003,119.892005 122.656,118.812 C122.031997,117.731995 121.408003,116.592006 120.784,115.392 L119.056,116.256 C118.719998,116.448001 118.336002,116.544 117.904,116.544 C117.423998,116.544 116.980002,116.424001 116.572,116.184 C116.163998,115.943999 115.840001,115.584002 115.6,115.104 C115.215998,114.431997 115.131999,113.760003 115.348,113.088 C115.564001,112.415997 116.007997,111.912002 116.68,111.576 L118.624,110.568 C117.567995,107.975987 116.596004,105.264014 115.708,102.432 C114.819996,99.5999858 113.992004,96.7200146 113.224,93.792 L93.784,93.072 C93.0639964,93.0239998 92.4640024,92.7360026 91.984,92.208 C91.5039976,91.6799974 91.264,91.0560036 91.264,90.336 C91.3120002,89.6159964 91.5999974,89.0280023 92.128,88.572 C92.6560026,88.1159977 93.2799964,87.8640002 94,87.816 L112,88.464 C111.615998,86.8319918 111.280001,85.2360078 110.992,83.676 C110.703999,82.1159922 110.440001,80.5680077 110.2,79.032 C110.055999,78.3119964 110.199998,77.6640029 110.632,77.088 C111.064002,76.5119971 111.639996,76.1520007 112.36,76.008 C113.032003,75.9119995 113.667997,76.0799978 114.268,76.512 C114.868003,76.9440022 115.216,77.5199964 115.312,78.24 C115.600001,79.8720082 115.911998,81.5639912 116.248,83.316 C116.584002,85.0680088 116.967998,86.8559909 117.4,88.68 L132.088,89.256 C132.808004,89.256 133.407998,89.5199974 133.888,90.048 C134.368002,90.5760026 134.608,91.1999964 134.608,91.92 C134.56,92.6400036 134.284003,93.2399976 133.78,93.72 C133.275997,94.2000024 132.664004,94.44 131.944,94.44 L131.872,94.44 L118.696,93.936 Z M105.592,125.472 C106.840006,124.559995 107.607999,122.976011 107.896,120.72 C108.136001,118.79999 107.584007,117.216006 106.24,115.968 C105.231995,115.103996 103.960008,114.528001 102.424,114.24 C100.887992,113.951999 99.2080091,113.999998 97.384,114.384 C96.6639964,114.528001 96.004003,114.396002 95.404,113.988 C94.803997,113.579998 94.4320007,113.016004 94.288,112.296 C94.1439993,111.623997 94.2639981,110.988003 94.648,110.388 C95.0320019,109.787997 95.5839964,109.392001 96.304,109.2 C98.9920134,108.671997 101.499988,108.659997 103.828,109.164 C106.156012,109.668003 108.135992,110.663993 109.768,112.152 C111.016006,113.304006 111.939997,114.659992 112.54,116.22 C113.140003,117.780008 113.320001,119.471991 113.08,121.296 C112.647998,125.136019 111.136013,127.943991 108.544,129.72 C107.343994,130.584004 106.108006,131.159999 104.836,131.448 C103.563994,131.736001 102.400005,131.88 101.344,131.88 C100.431995,131.88 99.6880029,131.832 99.112,131.736 C98.5359971,131.64 98.2240002,131.568 98.176,131.52 C97.4559964,131.375999 96.9040019,130.992003 96.52,130.368 C96.1359981,129.743997 96.039999,129.096003 96.232,128.424 C96.3760007,127.703996 96.7599969,127.152002 97.384,126.768 C98.0080031,126.383998 98.6559966,126.263999 99.328,126.408 C99.328,126.408 99.5439978,126.444 99.976,126.516 C100.408002,126.588 100.935997,126.624 101.56,126.624 C102.184003,126.624 102.855996,126.540001 103.576,126.372 C104.296004,126.203999 104.967997,125.904002 105.592,125.472 L105.592,125.472 Z M85.936,126.624 C85.2639966,126.383999 84.7480018,125.940003 84.388,125.292 C84.0279982,124.643997 83.9679988,123.984003 84.208,123.312 L92.416,96.96 C92.6560012,96.2399964 93.0879969,95.7120017 93.712,95.376 C94.3360031,95.0399983 95.0079964,94.9919988 95.728,95.232 C96.4000034,95.4720012 96.9159982,95.9039969 97.276,96.528 C97.6360018,97.1520031 97.6960012,97.7999966 97.456,98.472 L89.248,124.896 C89.055999,125.424003 88.7200024,125.855998 88.24,126.192 C87.7599976,126.528002 87.2560026,126.696 86.728,126.696 C86.3919983,126.696 86.128001,126.672 85.936,126.624 L85.936,126.624 Z M123.88,79.536 C124.216002,78.9119969 124.719997,78.504001 125.392,78.312 C126.064003,78.119999 126.735997,78.1919983 127.408,78.528 L133.096,81.696 C133.720003,82.0800019 134.139999,82.6079966 134.356,83.28 C134.572001,83.9520034 134.488002,84.6239966 134.104,85.296 C133.575997,86.1600043 132.808005,86.592 131.8,86.592 C131.319998,86.592 130.888002,86.496001 130.504,86.304 L124.888,83.136 C124.215997,82.7519981 123.784001,82.2240034 123.592,81.552 C123.399999,80.8799966 123.495998,80.2080034 123.88,79.536 L123.88,79.536 Z M208.12,90.984 C211.528017,93.6720134 213.303999,97.319977 213.448,101.928 C213.736001,109.272037 212.032018,114.575984 208.336,117.84 C206.799992,119.232007 205.228008,120.107998 203.62,120.468 C202.011992,120.828002 200.728005,121.008 199.768,121.008 C199.383998,121.008 199.096001,120.996 198.904,120.972 C198.711999,120.948 198.592,120.936 198.544,120.936 C197.823996,120.84 197.248002,120.504003 196.816,119.928 C196.383998,119.351997 196.216,118.704004 196.312,117.984 C196.408,117.263996 196.755997,116.688002 197.356,116.256 C197.956003,115.823998 198.591997,115.656 199.264,115.752 C199.312,115.752 199.515998,115.764 199.876,115.788 C200.236002,115.812 200.679997,115.776 201.208,115.68 C201.736003,115.584 202.323997,115.404001 202.972,115.14 C203.620003,114.875999 204.255997,114.456003 204.88,113.88 C207.328012,111.671989 208.432001,107.760028 208.192,102.144 C208.144,99.2159854 207.040011,96.8640089 204.88,95.088 C203.487993,94.0319947 201.844009,93.2640024 199.948,92.784 C198.051991,92.3039976 196.07201,91.9920007 194.008,91.848 L183.712,124.968 C183.567999,125.544003 183.256002,125.999998 182.776,126.336 C182.295998,126.672002 181.792003,126.84 181.264,126.84 C180.927998,126.84 180.664001,126.792 180.472,126.696 C179.799997,126.503999 179.284002,126.084003 178.924,125.436 C178.563998,124.787997 178.503999,124.128003 178.744,123.456 L188.536,91.704 C186.855992,91.8000005 185.320007,91.9319992 183.928,92.1 C182.535993,92.2680008 181.408004,92.447999 180.544,92.64 C179.823996,92.7840007 179.164003,92.652002 178.564,92.244 C177.963997,91.835998 177.592001,91.2720036 177.448,90.552 C177.303999,89.8799966 177.435998,89.2320031 177.844,88.608 C178.252002,87.9839969 178.815996,87.6000007 179.536,87.456 C179.632,87.456 179.967997,87.3960006 180.544,87.276 C181.120003,87.1559994 181.887995,87.0480005 182.848,86.952 C183.808005,86.8559995 184.911994,86.7480006 186.16,86.628 C187.408006,86.5079994 188.751993,86.448 190.192,86.448 L193.36,76.224 C193.600001,75.5519966 194.031997,75.0360018 194.656,74.676 C195.280003,74.3159982 195.951996,74.2559988 196.672,74.496 C197.344003,74.7360012 197.847998,75.1679969 198.184,75.792 C198.520002,76.4160031 198.568001,77.0639966 198.328,77.736 L195.592,86.664 C197.896012,86.9040012 200.139989,87.3479968 202.324,87.996 C204.508011,88.6440032 206.439992,89.6399933 208.12,90.984 L208.12,90.984 Z M177.52,88.176 C177.568,88.8960036 177.352002,89.5319972 176.872,90.084 C176.391998,90.6360028 175.792004,90.9359998 175.072,90.984 L167.584,91.56 C167.920002,91.9920022 168.088,92.4479976 168.088,92.928 L168.592,108.768 C168.592,109.104002 168.520001,109.415999 168.376,109.704 L177.592,108.48 C178.312004,108.384 178.959997,108.551998 179.536,108.984 C180.112003,109.416002 180.448,109.991996 180.544,110.712 C180.64,111.432004 180.460002,112.079997 180.004,112.656 C179.547998,113.232003 178.960004,113.568 178.24,113.664 L154.264,116.76 C154.168,116.76 154.108,116.772 154.084,116.796 C154.06,116.82 154,116.832 153.904,116.832 C153.231997,116.832 152.656002,116.616002 152.176,116.184 C151.695998,115.751998 151.408,115.200003 151.312,114.528 C151.216,113.807996 151.395998,113.160003 151.852,112.584 C152.308002,112.007997 152.895996,111.672 153.616,111.576 L163.768,110.28 C163.672,110.039999 163.576,109.812001 163.48,109.596 C163.384,109.379999 163.336,109.152001 163.336,108.912 L162.832,93.072 C162.832,92.7359983 162.927999,92.3280024 163.12,91.848 L155.992,92.424 L155.848,92.424 C155.175997,92.424 154.588003,92.1840024 154.084,91.704 C153.579997,91.2239976 153.28,90.6480034 153.184,89.976 C153.136,89.2559964 153.351998,88.6200028 153.832,88.068 C154.312002,87.5159972 154.911996,87.2160002 155.632,87.168 L174.712,85.8 C175.480004,85.7039995 176.115997,85.8959976 176.62,86.376 C177.124003,86.8560024 177.424,87.4559964 177.52,88.176 L177.52,88.176 Z M231.664,115.896 C230.847996,115.848 230.164003,115.584002 229.612,115.104 C229.059997,114.623998 228.808,114.000004 228.856,113.232 L230.656,82.056 C230.752,81.3359964 231.087997,80.7480023 231.664,80.292 C232.240003,79.8359977 232.935996,79.6319998 233.752,79.68 C234.568004,79.7280002 235.239997,79.9919976 235.768,80.472 C236.296003,80.9520024 236.536,81.5759962 236.488,82.344 L234.76,113.448 C234.664,114.168004 234.340003,114.755998 233.788,115.212 C233.235997,115.668002 232.552004,115.896 231.736,115.896 L231.664,115.896 Z M231.232,129 C230.127994,129 229.192004,128.628004 228.424,127.884 C227.655996,127.139996 227.272,126.192006 227.272,125.04 C227.272,123.839994 227.655996,122.868004 228.424,122.124 C229.192004,121.379996 230.127994,121.008 231.232,121.008 C232.336006,121.008 233.271996,121.379996 234.04,122.124 C234.808004,122.868004 235.192,123.839994 235.192,125.04 C235.192,126.192006 234.808004,127.139996 234.04,127.884 C233.271996,128.628004 232.336006,129 231.232,129 L231.232,129 Z" id="成功！" fill="#979797"></path>
                <path d="M314.992188,35.4492188 C300.551676,42.0825009 310.692339,36.7125304 288.164062,57.0195312" id="Path-50"></path>
                <path d="M285.953125,33.0820312 C300.559208,41.0803175 289.412789,34.4739478 315.40625,58.4492188" id="Path-51"></path>
            </g>
        </g>
    </g>
</svg>